# xmcd CD database file
#
# Track frame offsets:
#	150
#	17827
#	39350
#	42972
#	56852
#	70270
#	80977
#	97772
#	105647
#	124397
#	128132
#	141405
#	151915
#	165767
#	192885
#	203965
#	217255
#	220212
#
# Disc length: 3171 seconds
#
# Revision: 6
# Processed by: cddbd v1.5.2PL0 Copyright (c) Steve Scherf et al.
# Submitted via: CDex 1.50
#
DISCID=0a0c6112
DTITLE=최승현 - 클래식 O.S.T
DYEAR=2003
DGENRE=Soundtrack
TTITLE0=사랑하면 할수록 - 한성민
TTITLE1=Pachebel - Canon in D major
TTITLE2=엄마의 연애편지
TTITLE3=반딧불이
TTITLE4=포크댄스
TTITLE5=Do Wah Diddy Diddy - Manfred Man
TTITLE6=너에게 난 나에게 넌 - 자전거 탄 풍경
TTITLE7=Hippy Hippy Shake - The Swinging Blue Jeans
TTITLE8=Vivaldi Cello Concerto RV424 B minor
TTITLE9=슬픈왈츠
TTITLE10=우린 아무것도 할 수 없어
TTITLE11='摸
TTITLE12=빗속에서
TTITLE13=너무 아픈 사랑은 사랑이 아니었음을 - 김광석
TTITLE14=태수와 준하
TTITLE15=슬픈왈츠2(네드발)
TTITLE16=회상
TTITLE17=강가에서
EXTD=YEAR: 2003
EXTT0=
EXTT1=
EXTT2=
EXTT3=
EXTT4=
EXTT5=
EXTT6=
EXTT7=
EXTT8=
EXTT9=
EXTT10=
EXTT11=
EXTT12=
EXTT13=
EXTT14=
EXTT15=
EXTT16=
EXTT17=
PLAYORDER=
